<svg width="77" height="14" viewBox="0 0 77 14" xmlns="http://www.w3.org/2000/svg"><g id="Page-1" stroke="none" stroke-width="1" fill="none" fill-rule="evenodd"><g id="icons" transform="translate(-142 -216)" fill="#3C3D3C"><g id="Kunstmaan-Logo" transform="translate(142 216)"><path d="M32.04 4.62c-1.51 0-2.64.96-2.64 2.35 0 1.02.96 3.02.96 3.86 0 .279-.18.38-.34.38-.39 0-.95-.489-1.09-1.22.29-.31.44-.56.44-.91 0-.41-.47-1.15-1.05-1.15-.6 0-.9.86-1.02 1.711-.69.759-1.27 1.179-1.51 1.179-.15 0-.23-.07-.23-.25 0-.41.53-1.589.83-2.31.35-.789.48-1.37.48-1.82 0-.64-.38-1.14-1.14-1.14-.73 0-1.88.75-3.1 2.83.45-.81.67-1.97.67-2.38 0-.5-.15-.7-.72-.7-1.03 0-2.51 1.74-2.51 2.71 0 .3.03.64.13.93-.99 1.36-1.74 1.96-2.11 1.97-.13-.01-.23-.06-.23-.269 0-.311.7-1.851 1.05-2.791.25-.66.32-.99.32-1.29 0-.68-.69-1.34-1.62-1.34-.25 0-.53.1-.7.32-.08 1.42-.31 2.569-.88 4.36-.33.34-.86.741-1.15.741-.23 0-.33-.17-.33-.431 0-.26.1-.76.27-1.36.85-1.369 1.28-2.36 1.28-2.89 0-.49-.28-.66-.8-.66-1.16 0-2.76 1.85-2.76 2.88 0 .33.03.67.22 1.02-.44 1.06-.67 2.021-.67 2.51 0 .99.24 1.55 1.22 1.56.74 0 1.76-.7 2.55-2.2-.06.35-.09.63-.09.86 0 .86.41 1.07 1.09 1.07.7 0 1.58-.529 2.36-1.221.21-.189.42-.379.61-.579.06.95.72 1.771 1.62 1.771.38 0 .5-.051.67-.221.05-1.12.15-1.859.38-3.13.65-.899 1.2-1.139 1.34-1.149.14.01.21.069.21.199-.01.37-.85 2.04-.85 3.13 0 .9.33 1.33 1.31 1.33.79 0 1.91-.73 2.82-1.59.27 1.13 1.15 1.73 2.22 1.73 1.49 0 3.2-.78 3.2-2.78.01-1.211-.94-2.58-.94-3.32 0-.3.18-.4.53-.39.27 0 .56.06.88.19.2-.19.35-.54.35-.89 0-.79-.56-1.21-1.53-1.21" id="Fill-1"/><path d="M3.98 6.01c-1-.31-1.45-.66-1.45-1.35 0-1.13 1.47-2.51 1.93-2.51.2 0 .3.13.3.43 0 .43-.28 1.73-.78 3.43zm6.95-.97c1.03-1.47 1.25-1.64 1.9-1.69.21-.23.3-.56.29-.82 0-.85-.58-1.7-1.63-1.7-.88 0-1.33.24-2.27 2.44-.68 1.58-1.62 3.34-2.38 4.28-.31 0-.6.02-.83.05.8-3.27 1.3-5.59 1.3-6.1 0-.87-.54-1.5-1.7-1.5C3.56 0 .41 2.89.41 5.25c0 1.44 1.21 2.3 2.66 2.3.15 0 .36-.021.51-.04l-.21 1.01c-.7.99-1.1 2-1.1 2.61 0 .91.96 1.75 1.86 1.75.3 0 .55-.06.7-.21l.76-3.5c.77.24 1.13 1.02 2.18 3.28.42.9.72 1.14 1.35 1.14 1.18 0 2.44-.82 2.44-1.731 0-.199-.07-.449-.2-.599-.2.05-.53.099-.68.099-.25 0-.42-.099-.62-.489C9.48 9.71 8.9 8.54 8.3 8.141c.78-.67 1.62-1.651 2.63-3.101z" id="Fill-2"/><path d="M75.16 7.32c-.5 0-.79-.33-.79-.79 0-.62.38-1.15.98-1.15.57 0 .81.31.81.76 0 .75-.429 1.18-1 1.18zm.26-2.22c-.811 0-1.391.66-1.391 1.52 0 .611.442.989 1.061.989.84 0 1.41-.629 1.41-1.539 0-.56-.35-.97-1.08-.97z" id="Fill-3"/><path d="M75.31 6.43l-.16-.01c.05-.19.071-.35.081-.44.128.01.199.07.199.15 0 .09-.02.17-.12.3zm.36.27c-.04 0-.05-.01-.08-.06-.05-.1-.071-.1-.1-.14.18-.16.27-.29.27-.46 0-.2-.16-.36-.51-.36-.29 0-.481.13-.481.25 0 .05.021.08.061.09a.943.943 0 01.16-.04c-.05.19-.099.32-.15.46-.071.19-.08.24-.08.29 0 .14.09.24.2.24.05 0 .08-.02.09-.04 0-.06.03-.21.059-.32.08.04.141.12.231.3.04.08.07.1.15.1.14 0 .3-.12.3-.23 0-.03-.021-.07-.05-.09l-.07.01z" id="Fill-4"/><path d="M61.07 9.94c-.2.25-.429.419-.66.419-.24-.009-.439-.069-.439-.679 0-1.27.798-2.651 1.638-3.17l-.539 3.43zm-7.301 0c-.199.25-.429.419-.66.419-.229 0-.429-.069-.429-.679 0-1.27.801-2.64 1.63-3.17l-.541 3.43zM73.37 8.51c-1.03 1.47-2.07 2.31-2.399 2.31-.151 0-.24-.07-.24-.25 0-.41.529-1.58.829-2.31.35-.789.48-1.37.48-1.82 0-.64-.38-1.14-1.14-1.14-.74 0-1.881.75-3.09 2.83.45-.81.661-1.97.661-2.38 0-.5-.151-.69-.721-.69-1.029 0-2.51 1.73-2.51 2.7 0 .31.039.66.151.961-.991 1.329-1.791 1.899-2.112 1.899-.129 0-.199-.05-.199-.38 0-.43-.12-.55.46-2.631a4.44 4.44 0 00.181-1.089c0-.58-.271-1.29-1.401-1.29-.23 0-.45.07-.58.22l-.051-.02c-.089-.08-.199-.11-.439-.11-1.41 0-3.1 1.86-3.59 3.94-.79.95-1.41 1.36-1.679 1.36-.131 0-.202-.05-.202-.38 0-.43-.119-.55.461-2.631.13-.459.18-.869.18-1.089 0-.58-.27-1.29-1.401-1.29-.229 0-.449.07-.579.22l-.06-.01c-.08-.09-.2-.12-.43-.12-1.4 0-3.08 1.84-3.58 3.901-.93 1.149-1.72 1.76-1.97 1.76-.15 0-.23-.061-.23-.241 0-.42.66-1.849.96-2.58.3-.689.45-1.27.45-1.7 0-.65-.37-1.22-1.13-1.22-.729 0-1.65.71-3.01 2.741.4-.791.41-1.171.419-1.601 0-.55-.349-.98-.979-.98-.73 0-1.56.48-2.78 2.56.4-.87.52-1.45.52-1.87 0-.49-.229-.69-.72-.69-1.03 0-2.36 1.22-2.36 2.2 0 .31.03.679.16.99-1.1 1.49-2.21 2.25-2.87 2.24-.35.01-.45-.18-.45-.57 0-.25.14-1.18.59-2.99.48.08.83.1 1.21.1.55 0 .961-.48.961-1.11 0-.25-.112-.55-.311-.7-.22.05-.92.1-1.43.12.88-1.75 1.08-2.15 1.08-2.66 0-.71-.35-.97-1.12-.97-1.13 0-2.02 1.04-2.17 2.49-.07.61-.09.88-.1 1.22-.68.02-1.05.48-1.05.99 0 .37.28.4.62.43-.63 2.099-.8 3.11-.8 3.59 0 1.52.86 2.18 2.14 2.18 1.08 0 2.34-.93 3.25-1.921.09.921.75 1.702 1.62 1.702.38 0 .5-.051.67-.211.05-1.12.2-2.049.431-3.32.649-.89 1.048-1.14 1.199-1.14.13 0 .2.049.2.2 0 .16-.149.54-.29.91-.29.79-.561 1.76-.561 2.391.01.989.651 1.369 1.581 1.369.35 0 .5-.08.66-.25.051-1.119.221-2.039.45-3.321.649-.888 1.23-1.239 1.38-1.239.131 0 .2.07.2.2 0 .36-.98 2.33-.98 3.42 0 .91.331 1.34 1.31 1.34.88 0 2.2-.971 3.17-2 .191 1.05.8 1.59 1.59 1.59.58 0 1.341-.42 1.88-1.92-.039.25-.05.46-.05.641 0 1.059.46 1.359 1.19 1.359.66 0 1.8-.81 2.68-1.71.18 1.069.8 1.63 1.6 1.63.58 0 1.339-.42 1.87-1.92-.031.25-.04.46-.05.641 0 1.059.471 1.359 1.2 1.359.691 0 1.9-.88 2.8-1.84.05.97.71 1.811 1.62 1.811.39 0 .5-.051.67-.221.05-1.12.15-1.87.38-3.141.65-.888 1.2-1.138 1.349-1.138.131 0 .202.069.202.199 0 .37-.851 2.03-.851 3.12 0 .91.33 1.34 1.31 1.34 1.53 0 4.339-2.79 4.339-3.83 0-.329-.33-.54-.649-.54z" id="Fill-5"/></g></g></g></svg>