<svg xmlns="http://www.w3.org/2000/svg" viewBox="0 0 508.5 52"><path d="M508.5 52V0H163.4v52zM194.72 28.34c2.08.41 3.17 1.35 4.68 3.27l2.23 2.81h-7.07L190.35 29h-9.52v5.41h-6.19V17.68h18.57c5.3 0 8.06 1.76 8.06 5.46v.1c0 2.81-1.77 4.84-6.55 5.1zm31.35.41h-16.38V29c0 1.72 1.87 2.45 7.07 2.45a26.72 26.72 0 008.53-1.36h.05v3.54a49.23 49.23 0 01-9.93 1c-8.42 0-11.91-2.13-11.91-6.71v-.57c0-4.47 3.54-6.6 11.34-6.6s11.23 1.92 11.23 6.55v1.4zm23.61 4.89a44 44 0 01-9.36 1c-8.37 0-12-2.13-12-6.71v-.52c0-4.57 3.64-6.65 12-6.65a39.42 39.42 0 019.36 1v3.48h-.11a24 24 0 00-7.74-1.25c-4.94 0-7.33 1-7.33 3.38V28c0 2.39 2.39 3.38 7.33 3.38a25.1 25.1 0 007.74-1.25h.11v3.54zm25.48.78h-6.09v-6.24c0-2.65-1.66-3.8-5.09-3.8a10.6 10.6 0 00-4.94 1.15v8.89h-6.14v-16.8h6.1v6h.1c1.72-1.82 4.74-2.86 8.12-2.86 4.83 0 7.9 1.66 7.9 6v7.64zm23.87-.78a30 30 0 01-7.65 1c-7.28 0-10.24-1.72-10.24-6.19v-4.11H277v-3.32h4.27v-2.19l5.87-.83v3h11v3.32h-10.92v3.49c0 2.65 1.67 3.48 5.62 3.48a16.1 16.1 0 006.14-1.25v3.54zm8.52-8.79c0 .83.84 1.2 6.56 1.61 7.69.52 10 1.72 10 4.22 0 2.65-2.13 4-12.12 4a53 53 0 01-10.45-1V30.1h.05a32.92 32.92 0 0010.46 1.56c5 0 6-.31 6-1.19s-.78-1.2-6.5-1.61c-7.7-.52-10-1.67-10-4.16 0-2.66 2.18-3.9 12-3.9a44.64 44.64 0 0110.24 1v3.48h-.05a32 32 0 00-10.19-1.51c-4.94 0-5.88.21-5.88 1zm41.92 9.57h-6.09V32.5h-.1c-1.82 1.5-5.57 2.13-8.84 2.13-5.67 0-8-1.09-8-3.85v-.16c0-2.7 2.45-3.84 9.47-4l7.43-.15v-.26c0-1.51-2.29-2.29-6.5-2.29a33.67 33.67 0 00-9.83 1.35v-3.48a46.61 46.61 0 0110.19-1c8.79 0 12.28 1.56 12.28 6.55v7.07zm25.79 0h-6.09v-6.24c0-2.65-1.66-3.8-5.09-3.8a10.6 10.6 0 00-4.94 1.15v8.89H353V21.06h6.14v2.6h.1c1.72-1.82 4.73-2.86 8.11-2.86 4.84 0 7.91 1.66 7.91 6v7.64zm38.11-13.36l-7.28 13.36h-6.29l-4.47-8.27h-.16l-4.52 8.27h-6.4L377 21.06h6.56l4.62 9.1h.16l4.68-9.1h5.62l4.68 9.1h.15l4.68-9.1zm11.39-2.5c0 .73-.42 1.25-2.6 1.25s-2.6-.52-2.6-1.25.36-1.2 2.6-1.2 2.6.42 2.6 1.2zm8 0c0 .73-.37 1.25-2.6 1.25s-2.55-.52-2.55-1.25.36-1.2 2.55-1.2 2.6.42 2.6 1.2zm4.94 15.86h-6.09V32.5h-.1c-1.82 1.5-5.56 2.13-8.84 2.13-5.67 0-8-1.09-8-3.85v-.16c0-2.7 2.45-3.84 9.47-4l7.43-.15v-.26c0-1.51-2.28-2.29-6.5-2.29a33.55 33.55 0 00-9.82 1.35h-.06v-3.48a46.61 46.61 0 0110.19-1c8.79 0 12.28 1.56 12.28 6.55v7.07zm9.67 0h-6.14v-16.8h6.14v16.8zm24.13-.78a30 30 0 01-7.65 1c-7.28 0-10.24-1.72-10.24-6.19v-4.11h-4.11v-3.32h4.26v-2.19l5.88-.83v3h11v3.32H459.7v3.49c0 2.65 1.67 3.48 5.62 3.48a16.05 16.05 0 006.13-1.25h.06v3.54zm24.8-4.89h-16.38V29c0 1.72 1.87 2.45 7.07 2.45a26.77 26.77 0 008.53-1.36v3.54a49.23 49.23 0 01-9.93 1c-8.42 0-11.91-2.13-11.91-6.71v-.57c0-4.47 3.54-6.6 11.34-6.6s11.23 1.92 11.23 6.55v1.4zm-16.38-2.13h10.3v-.16c0-1.82-1.56-2.7-5.15-2.7s-5.15.88-5.15 2.7v.16zm-54.18 5.2a13 13 0 005.87-1.2v-2.08l-5.14.16c-4.74.1-5.78.47-5.78 1.51v.15c0 1 1 1.46 5 1.46zm-88.24 0a13 13 0 005.87-1.2v-2.08l-5.15.16c-4.73.1-5.77.47-5.77 1.51v.15c0 1 1 1.46 5 1.46zm-127.82-5.2H220v-.16c0-1.82-1.56-2.7-5.15-2.7s-5.15.88-5.15 2.7v.16zm-14.61-3.22v-.11c0-1.56-1.2-2.13-3.9-2.13h-10.34v4.42h10.35c2.76 0 3.9-.62 3.9-2.18zM0 52h161.32V0H0v52zm143.39-34.38h6.14v16.8h-6.14v-16.8zm-25.58 9.78c0-4.47 3.53-6.6 11.33-6.6s11.24 1.92 11.24 6.55v1.4H124V29c0 1.72 1.87 2.45 7.07 2.45a26.82 26.82 0 008.53-1.36v3.54a49.32 49.32 0 01-9.93 1c-8.43 0-11.91-2.13-11.91-6.71v-.57zm-8.27 3.07c0-.83-.78-1.2-6.5-1.61-7.69-.52-10-1.67-10-4.16 0-2.66 2.18-3.9 12-3.9a44.64 44.64 0 0110.24 1v3.48h-.05A32 32 0 00105 23.81c-4.94 0-5.88.21-5.88 1s.83 1.2 6.55 1.61c7.7.52 10 1.72 10 4.22 0 2.65-2.14 4-12.12 4a53 53 0 01-10.45-1V30.1h.05a32.9 32.9 0 0010.45 1.56c5.05 0 6-.31 6-1.19zm-41.7-9.41H74v2.6h.11c1.71-1.82 4.73-2.86 8.11-2.86 4.84 0 7.9 1.66 7.9 6v7.64H84V28.2c0-2.65-1.66-3.8-5.1-3.8a10.63 10.63 0 00-4.94 1.15v8.89h-6.13V21.06zm-26.52 9.56c0-2.7 2.44-3.84 9.46-4l7.44-.15v-.26c0-1.51-2.29-2.29-6.5-2.29a33.67 33.67 0 00-9.83 1.35v-3.48a46.61 46.61 0 0110.19-1c8.79 0 12.27 1.56 12.27 6.55v7.07h-6.08V32.5h-.1c-1.82 1.5-5.57 2.13-8.84 2.13-5.67 0-8-1.09-8-3.85v-.16zm-30.26-4.94c0-5.92 4.52-8.32 14.61-8.32a69.09 69.09 0 0112.37 1.2v3.74a46.11 46.11 0 00-10.66-1.19c-7 0-9.93 1.25-9.93 4.63v.67c0 3.28 2.81 4.58 9.57 4.58a16.53 16.53 0 005.41-.94V27.3H24v-2.86h14.2v8.37a46.76 46.76 0 01-12.58 1.87c-10.09 0-14.56-2.39-14.56-8.27v-.73zm36.24 4.53v.15c0 1 1 1.46 5 1.46a13 13 0 005.88-1.2v-2.08l-5.15.16c-4.73.1-5.77.47-5.77 1.51zm76.7-3.75v.16h10.29v-.16c0-1.82-1.56-2.7-5.15-2.7s-5.14.88-5.14 2.7z" fill="#004b5a"/></svg>